<svg width="16" height="14" viewBox="0 0 16 14" fill="none" xmlns="http://www.w3.org/2000/svg">
<path d="M9.90238 13.0877L9.86756 12.7394C9.65859 11.1721 8.12616 9.95315 6.24545 9.95315C4.36475 9.95315 2.79749 11.1721 2.62335 12.7394L2.58852 13.0877L1.89196 13.0528C1.89196 13.0528 1.89196 13.0528 1.89196 13.018C1.02127 12.8787 0.324707 12.1125 0.324707 11.1721V2.04721C0.324707 1.00237 1.16058 0.166504 2.17059 0.166504H13.7683C14.8131 0.166504 15.6142 1.00237 15.6142 2.04721V11.207C15.6142 12.2518 14.7783 13.0528 13.7683 13.0528H10.5989L9.90238 13.0877ZM10.5293 12.3563H13.8031C14.43 12.3563 14.9524 11.8339 14.9524 11.207V2.04721C14.9524 1.42031 14.43 0.863062 13.8031 0.863062H2.17059C1.54368 0.863062 1.02127 1.38548 1.02127 2.04721V11.207C1.02127 11.7642 1.4392 12.2518 1.96162 12.3563C2.34473 10.5801 4.12095 9.25659 6.24545 9.25659C8.36996 9.22176 10.1462 10.5801 10.5293 12.3563Z" fill="white"/>
</svg>
