<svg width="15" height="20" viewBox="0 0 15 20" fill="none" xmlns="http://www.w3.org/2000/svg">
<path d="M14.003 7.75589C14.003 3.88651 10.8706 0.75415 7.00125 0.75415C3.13187 0.75415 -0.000488281 3.88651 -0.000488281 7.75589C-0.000488281 9.85641 0.920793 11.7358 2.39484 13.0256V19.88L6.92755 16.7476L11.4234 19.88V13.173C13.008 11.8832 14.003 9.93011 14.003 7.75589ZM1.10505 7.75589C1.10505 4.51298 3.75834 1.85969 7.00125 1.85969C10.2442 1.85969 12.8975 4.51298 12.8975 7.75589C12.8975 10.9988 10.2442 13.6521 7.00125 13.6521C3.75834 13.6521 1.10505 10.9988 1.10505 7.75589ZM10.3179 17.7426L6.8907 15.3841L3.46353 17.7426V13.7995C4.49537 14.3891 5.67461 14.7576 6.9644 14.7576C8.18049 14.7576 9.28603 14.4628 10.281 13.9101V17.7426H10.3179Z" fill="#23AFBE"/>
<circle cx="7.00194" cy="7.75633" r="4.53075" fill="#23AFBE"/>
<circle cx="7.00132" cy="7.75621" r="2.05943" fill="white"/>
</svg>
