<svg width="25" height="22" viewBox="0 0 25 22" fill="none" xmlns="http://www.w3.org/2000/svg">
<path d="M23.8592 6.01449L12.4591 0.432259C12.2939 0.351357 12.046 0.351357 11.7982 0.432259L0.398109 6.01449C-0.0975468 6.2572 -0.0975468 6.98532 0.398109 7.22802L11.7982 12.8103C11.9634 12.8912 12.2112 12.8912 12.4591 12.8103L15.7634 11.1922V10.4641L11.1373 7.87524C10.8069 7.71344 10.6417 7.22802 10.8895 6.90442C11.0547 6.58081 11.5504 6.419 11.8808 6.66171L16.92 9.41238C17.1678 9.57418 17.2504 9.73599 17.2504 9.97869V10.3832L23.9418 7.06622C24.3548 6.98532 24.3548 6.2572 23.8592 6.01449Z" fill="#23AFBE"/>
<path d="M15.6818 14.3479V12.8107L13.0383 14.1052C12.4601 14.4288 11.7166 14.4288 11.1383 14.1052L4.28174 10.7073V14.5097C4.28174 14.6715 4.28174 14.7524 4.36435 14.8333C6.09914 17.6648 11.3035 18.1503 14.6905 17.5839C13.7818 16.4513 14.3601 14.8333 15.6818 14.3479Z" fill="#23AFBE"/>
<path d="M17.1685 14.3479C17.9119 14.6715 18.4902 15.3187 18.5728 16.2086C19.1511 15.8041 19.5641 15.3996 19.8946 14.8333C19.9772 14.7524 19.9772 14.5906 19.9772 14.5097V10.7073L17.1685 12.0826V14.3479V14.3479Z" fill="#23AFBE"/>
<path d="M17.8295 17.8267C17.0034 18.5548 15.7643 18.5548 14.9382 17.8267L13.8643 20.2537C13.699 20.7391 14.0295 21.2245 14.5251 21.2245H18.3252C18.8208 21.2245 19.1513 20.7391 18.986 20.2537L17.8295 17.8267Z" fill="#23AFBE"/>
<path d="M17.0861 16.2894C17.0861 16.6939 16.7557 17.0175 16.3426 17.0175C15.9296 17.0175 15.5991 16.6939 15.5991 16.2894C15.5991 15.8849 15.9296 15.5613 16.3426 15.5613C16.7557 15.6422 17.0861 15.9658 17.0861 16.2894Z" fill="#23AFBE"/>
</svg>
